<?xml version="1.0" encoding="UTF-8" standalone="no"?>
<svg
   xmlns:dc="http://purl.org/dc/elements/1.1/"
   xmlns:cc="http://creativecommons.org/ns#"
   xmlns:rdf="http://www.w3.org/1999/02/22-rdf-syntax-ns#"
   xmlns:svg="http://www.w3.org/2000/svg"
   xmlns="http://www.w3.org/2000/svg"
   xmlns:sodipodi="http://sodipodi.sourceforge.net/DTD/sodipodi-0.dtd"
   xmlns:inkscape="http://www.inkscape.org/namespaces/inkscape"
   viewBox="0 0 2500 2500"
   version="1.1"
   id="svg1452"
   sodipodi:docname="0x51B85F3889c7EA8f6d5EdEBFBadaDA0fDcE236c9.svg"
   width="2500"
   height="2500"
   inkscape:export-filename="/home/ryan/dev/glide/app/public/images/tokens/0x51B85F3889c7EA8f6d5EdEBFBadaDA0fDcE236c9.png"
   inkscape:export-xdpi="1.92"
   inkscape:export-ydpi="1.92"
   inkscape:version="0.92.3 (2405546, 2018-03-11)">
  <metadata
     id="metadata1456">
    <rdf:RDF>
      <cc:Work
         rdf:about="">
        <dc:format>image/svg+xml</dc:format>
        <dc:type
           rdf:resource="http://purl.org/dc/dcmitype/StillImage" />
        <dc:title>bi</dc:title>
      </cc:Work>
    </rdf:RDF>
  </metadata>
  <sodipodi:namedview
     pagecolor="#ffffff"
     bordercolor="#666666"
     borderopacity="1"
     objecttolerance="10"
     gridtolerance="10"
     guidetolerance="10"
     inkscape:pageopacity="0"
     inkscape:pageshadow="2"
     inkscape:window-width="1853"
     inkscape:window-height="1025"
     id="namedview1454"
     showgrid="false"
     fit-margin-top="0"
     fit-margin-left="0"
     fit-margin-right="0"
     fit-margin-bottom="0"
     inkscape:zoom="0.1888"
     inkscape:cx="1207.3728"
     inkscape:cy="1442.6529"
     inkscape:window-x="67"
     inkscape:window-y="27"
     inkscape:window-maximized="1"
     inkscape:current-layer="svg1452" />
  <defs
     id="defs1442">
    <style
       id="style1440">.cls-1{fill:#f3ba2f;}</style>
  </defs>
  <title
     id="title1444">bi</title>
  <circle
     style="opacity:1;fill:#f3ba2f;fill-opacity:1;stroke:#ffffff;stroke-width:3.02637362;stroke-linecap:round;stroke-linejoin:round;stroke-miterlimit:4;stroke-dasharray:none;stroke-opacity:1;paint-order:stroke fill markers"
     id="path2001"
     cx="1250"
     cy="1250"
     r="1248.4868" />
  <g
     id="Layer_2"
     data-name="Layer 2"
     transform="matrix(0.71822035,0,0,0.71822035,352.22456,352.22456)"
     style="fill:#ffffff">
    <g
       id="Layer_1-2"
       data-name="Layer 1"
       style="fill:#ffffff">
      <path
         class="cls-1"
         d="M 764.48,1050.52 1250,565 1735.75,1050.73 2018.25,768.23 1250,0 482,768 764.49,1050.5 M 0,1250 282.51,967.45 565,1249.94 282.49,1532.45 Z M 764.48,1449.51 1250,1935 l 485.74,-485.72 282.65,282.35 -0.14,0.15 L 1250,2500 482,1732 l -0.4,-0.4 282.91,-282.12 M 1935,1250.12 2217.51,967.61 2500,1250.1 2217.5,1532.61 Z"
         id="path1446"
         inkscape:connector-curvature="0"
         style="fill:#ffffff" />
      <path
         class="cls-1"
         d="m 1536.52,1249.85 h 0.12 L 1250,963.19 1038.13,1175 v 0 l -24.34,24.35 -50.2,50.21 -0.4,0.39 0.4,0.41 286.41,286.45 286.66,-286.66 0.14,-0.16 -0.26,-0.14"
         id="path1448"
         inkscape:connector-curvature="0"
         style="fill:#ffffff" />
    </g>
  </g>
</svg>
