<svg xmlns="http://www.w3.org/2000/svg" viewBox="0 0 209.05 209.05"><defs><style>.cls-1{fill:#fff;}.cls-2{fill:#282e5b;}.cls-3{fill:#059bdc;}</style></defs><title>ht</title><g id="图层_2" data-name="图层 2"><circle class="cls-1" cx="104.52" cy="104.52" r="104.52"/></g><g id="图层_1" data-name="图层 1"><path class="cls-2" d="M118.4,79c0-19.5-9.4-36.3-16.6-41.8,0,0-.5-.3-.5.5-.6,37.7-19.7,48-30.3,61.7-24.3,31.8-1.7,66.6,21.3,73,12.9,3.6-3-6.4-5-27.4-2.4-25.5,31.1-44.9,31.1-66" transform="translate(0 -0.63)"/><path class="cls-3" d="M131,91.89a.45.45,0,0,0-.5,0l-.1.1c-.4,4.7-5.6,14.9-12.1,24.2-22.1,31.6-9.5,46.8-2.4,55,4.1,4.8,0,0,10.3-4.9.8-.4,20-10.6,22.1-33.7,2.1-22.5-12.2-36.6-17.3-40.7" transform="translate(0 -0.63)"/></g></svg>