<?xml version="1.0" encoding="UTF-8" standalone="no"?>
<!-- Generator: Adobe Illustrator 24.0.0, SVG Export Plug-In . SVG Version: 6.00 Build 0)  -->

<svg
   xmlns:dc="http://purl.org/dc/elements/1.1/"
   xmlns:cc="http://creativecommons.org/ns#"
   xmlns:rdf="http://www.w3.org/1999/02/22-rdf-syntax-ns#"
   xmlns:svg="http://www.w3.org/2000/svg"
   xmlns="http://www.w3.org/2000/svg"
   xmlns:sodipodi="http://sodipodi.sourceforge.net/DTD/sodipodi-0.dtd"
   xmlns:inkscape="http://www.inkscape.org/namespaces/inkscape"
   version="1.1"
   id="Layer_1"
   x="0px"
   y="0px"
   viewBox="0 0 2000 2000"
   style="enable-background:new 0 0 2000 2000;"
   xml:space="preserve"
   sodipodi:docname="0x0298c2b32eaE4da002a15f36fdf7615BEa3DA047.svg"
   inkscape:version="0.92.3 (2405546, 2018-03-11)"><metadata
   id="metadata1210"><rdf:RDF><cc:Work
       rdf:about=""><dc:format>image/svg+xml</dc:format><dc:type
         rdf:resource="http://purl.org/dc/dcmitype/StillImage" /><dc:title></dc:title></cc:Work></rdf:RDF></metadata><sodipodi:namedview
   pagecolor="#ffffff"
   bordercolor="#666666"
   borderopacity="1"
   objecttolerance="10"
   gridtolerance="10"
   guidetolerance="10"
   inkscape:pageopacity="0"
   inkscape:pageshadow="2"
   inkscape:window-width="1853"
   inkscape:window-height="1025"
   id="namedview1208"
   showgrid="false"
   inkscape:zoom="0.118"
   inkscape:cx="1000"
   inkscape:cy="1000"
   inkscape:window-x="67"
   inkscape:window-y="27"
   inkscape:window-maximized="1"
   inkscape:current-layer="Layer_1" />
<style
   type="text/css"
   id="style1191">
	.st0{fill-rule:evenodd;clip-rule:evenodd;fill:#F9F9F9;}
	.st1{fill-rule:evenodd;clip-rule:evenodd;fill:#FFFFFF;filter:url(#Adobe_OpacityMaskFilter);}
	.st2{mask:url(#a_1_);}
	.st3{fill-rule:evenodd;clip-rule:evenodd;fill:#005FFA;}
</style>
<path
   class="st0"
   d="M280.8,923.5l307.4-730.7l873.2,100.6l178.8,539.3l-89.4,746c-128.5,137.9-210.5,206.8-245.9,206.8  c-35.4,0-303.6-48.9-804.7-146.7l-219.3-542.1L280.8,923.5z"
   id="path1193" />
<defs
   id="defs1198">
	<filter
   id="Adobe_OpacityMaskFilter"
   filterUnits="userSpaceOnUse"
   x="0"
   y="0"
   width="2000"
   height="2000">
		<feColorMatrix
   type="matrix"
   values="1 0 0 0 0  0 1 0 0 0  0 0 1 0 0  0 0 0 1 0"
   id="feColorMatrix1195" />
	</filter>
</defs>
<mask
   maskUnits="userSpaceOnUse"
   x="0"
   y="0"
   width="2000"
   height="2000"
   id="a_1_">
	<path
   class="st1"
   d="M0,0h2000v2000H0V0z"
   id="path1200" />
</mask>
<g
   class="st2"
   mask="url(#a_1_)"
   id="g1205">
	<path
   class="st3"
   d="M1419,1579.4h-212.9v-366.5c0-58.7-47.5-106.4-106.2-106.4c0,0-0.1,0-0.1,0h-306   c-117.5,0-212.8-95.3-212.8-212.8v-473h212.8v366.6c0,58.7,47.6,106.4,106.3,106.4c0,0,0,0,0,0h306   c117.5,0.1,212.7,95.3,212.8,212.8L1419,1579.4z M801.2,1579.4H588.3v-357.4c117.5,0,212.8,95.2,212.8,212.8L801.2,1579.4z    M1198.8,420.6h212.8v357.6c-117.6,0-212.8-95.3-212.8-212.8V420.6z M1000,0C447.7,0,0,447.8,0,1000s447.7,1000,1000,1000   s1000-447.7,1000-1000S1552.3,0,1000,0L1000,0z"
   id="path1203" />
</g>
</svg>